<mxfile host="app.diagrams.net" modified="2020-05-08T09:25:24.494Z" agent="5.0 (Windows NT 6.1; Win64; x64) AppleWebKit/537.36 (KHTML, like Gecko) Chrome/81.0.4044.129 Safari/537.36" etag="xh0dUFI609eDkpqmFhgs" version="13.0.9" type="github">
  <diagram id="EB76eqON_kpgJG8AN8L-" name="Page-1">
    <mxGraphModel dx="2489" dy="1914" grid="1" gridSize="10" guides="1" tooltips="1" connect="1" arrows="1" fold="1" page="1" pageScale="1" pageWidth="827" pageHeight="1169" math="0" shadow="0">
      <root>
        <mxCell id="0" />
        <mxCell id="1" parent="0" />
        <mxCell id="M0QYe40SBVqBNcC5Cj2S-3" style="edgeStyle=orthogonalEdgeStyle;rounded=0;orthogonalLoop=1;jettySize=auto;html=1;exitX=1;exitY=0.5;exitDx=0;exitDy=0;" edge="1" parent="1" source="M0QYe40SBVqBNcC5Cj2S-1" target="M0QYe40SBVqBNcC5Cj2S-2">
          <mxGeometry relative="1" as="geometry">
            <mxPoint x="160" y="360" as="sourcePoint" />
            <Array as="points">
              <mxPoint x="80" y="350" />
              <mxPoint x="80" y="130" />
            </Array>
          </mxGeometry>
        </mxCell>
        <mxCell id="M0QYe40SBVqBNcC5Cj2S-1" value="&lt;font style=&quot;font-size: 13px&quot;&gt;관리자 메인 페이지&lt;/font&gt;" style="rounded=1;whiteSpace=wrap;html=1;" vertex="1" parent="1">
          <mxGeometry x="-170" y="320" width="120" height="60" as="geometry" />
        </mxCell>
        <mxCell id="M0QYe40SBVqBNcC5Cj2S-45" style="edgeStyle=orthogonalEdgeStyle;rounded=0;orthogonalLoop=1;jettySize=auto;html=1;entryX=-0.006;entryY=0.613;entryDx=0;entryDy=0;entryPerimeter=0;" edge="1" parent="1" source="M0QYe40SBVqBNcC5Cj2S-2" target="M0QYe40SBVqBNcC5Cj2S-43">
          <mxGeometry relative="1" as="geometry">
            <Array as="points">
              <mxPoint x="360" y="130" />
              <mxPoint x="360" y="221" />
            </Array>
          </mxGeometry>
        </mxCell>
        <mxCell id="M0QYe40SBVqBNcC5Cj2S-80" style="edgeStyle=orthogonalEdgeStyle;rounded=0;orthogonalLoop=1;jettySize=auto;html=1;entryX=0;entryY=0.75;entryDx=0;entryDy=0;" edge="1" parent="1" source="M0QYe40SBVqBNcC5Cj2S-2" target="M0QYe40SBVqBNcC5Cj2S-38">
          <mxGeometry relative="1" as="geometry">
            <Array as="points">
              <mxPoint x="355" y="130" />
              <mxPoint x="355" y="335" />
            </Array>
          </mxGeometry>
        </mxCell>
        <mxCell id="M0QYe40SBVqBNcC5Cj2S-2" value="&lt;span style=&quot;font-size: 15px&quot;&gt;마이페이지&lt;br&gt;&lt;/span&gt;" style="rounded=1;whiteSpace=wrap;html=1;" vertex="1" parent="1">
          <mxGeometry x="200" y="100" width="120" height="60" as="geometry" />
        </mxCell>
        <mxCell id="M0QYe40SBVqBNcC5Cj2S-27" style="edgeStyle=orthogonalEdgeStyle;rounded=0;orthogonalLoop=1;jettySize=auto;html=1;entryX=0;entryY=0.5;entryDx=0;entryDy=0;" edge="1" parent="1" source="M0QYe40SBVqBNcC5Cj2S-7" target="M0QYe40SBVqBNcC5Cj2S-26">
          <mxGeometry relative="1" as="geometry" />
        </mxCell>
        <mxCell id="M0QYe40SBVqBNcC5Cj2S-30" style="edgeStyle=orthogonalEdgeStyle;rounded=0;orthogonalLoop=1;jettySize=auto;html=1;entryX=-0.021;entryY=0.407;entryDx=0;entryDy=0;entryPerimeter=0;" edge="1" parent="1" source="M0QYe40SBVqBNcC5Cj2S-7" target="M0QYe40SBVqBNcC5Cj2S-28">
          <mxGeometry relative="1" as="geometry" />
        </mxCell>
        <mxCell id="M0QYe40SBVqBNcC5Cj2S-7" value="공지사항&amp;nbsp;" style="rounded=1;whiteSpace=wrap;html=1;" vertex="1" parent="1">
          <mxGeometry x="390" y="-250" width="130" height="80" as="geometry" />
        </mxCell>
        <mxCell id="M0QYe40SBVqBNcC5Cj2S-62" style="edgeStyle=orthogonalEdgeStyle;rounded=0;orthogonalLoop=1;jettySize=auto;html=1;entryX=0;entryY=0.5;entryDx=0;entryDy=0;" edge="1" parent="1" source="M0QYe40SBVqBNcC5Cj2S-9" target="M0QYe40SBVqBNcC5Cj2S-59">
          <mxGeometry relative="1" as="geometry" />
        </mxCell>
        <mxCell id="M0QYe40SBVqBNcC5Cj2S-9" value="회원 관리" style="rounded=1;whiteSpace=wrap;html=1;" vertex="1" parent="1">
          <mxGeometry x="380" y="30" width="130" height="70" as="geometry" />
        </mxCell>
        <mxCell id="M0QYe40SBVqBNcC5Cj2S-15" value="" style="endArrow=none;html=1;exitX=1;exitY=0.5;exitDx=0;exitDy=0;" edge="1" parent="1" source="M0QYe40SBVqBNcC5Cj2S-2">
          <mxGeometry width="50" height="50" relative="1" as="geometry">
            <mxPoint x="300" y="260" as="sourcePoint" />
            <mxPoint x="360" y="130" as="targetPoint" />
          </mxGeometry>
        </mxCell>
        <mxCell id="M0QYe40SBVqBNcC5Cj2S-16" value="" style="endArrow=classic;startArrow=classic;html=1;entryX=0;entryY=0.5;entryDx=0;entryDy=0;exitX=0;exitY=0.5;exitDx=0;exitDy=0;" edge="1" parent="1" source="M0QYe40SBVqBNcC5Cj2S-9" target="M0QYe40SBVqBNcC5Cj2S-7">
          <mxGeometry width="50" height="50" relative="1" as="geometry">
            <mxPoint x="200" y="360" as="sourcePoint" />
            <mxPoint x="250" y="310" as="targetPoint" />
            <Array as="points">
              <mxPoint x="360" y="65" />
              <mxPoint x="360" y="130" />
              <mxPoint x="360" y="50" />
              <mxPoint x="360" y="-210" />
            </Array>
          </mxGeometry>
        </mxCell>
        <mxCell id="M0QYe40SBVqBNcC5Cj2S-24" value="회원 탈퇴" style="rounded=1;whiteSpace=wrap;html=1;" vertex="1" parent="1">
          <mxGeometry x="760" y="-50" width="120" height="40" as="geometry" />
        </mxCell>
        <mxCell id="M0QYe40SBVqBNcC5Cj2S-26" value="공지사항 작성" style="rounded=1;whiteSpace=wrap;html=1;" vertex="1" parent="1">
          <mxGeometry x="570" y="-440" width="120" height="50" as="geometry" />
        </mxCell>
        <mxCell id="M0QYe40SBVqBNcC5Cj2S-32" style="edgeStyle=orthogonalEdgeStyle;rounded=0;orthogonalLoop=1;jettySize=auto;html=1;entryX=0;entryY=0.5;entryDx=0;entryDy=0;" edge="1" parent="1" source="M0QYe40SBVqBNcC5Cj2S-28" target="M0QYe40SBVqBNcC5Cj2S-29">
          <mxGeometry relative="1" as="geometry" />
        </mxCell>
        <mxCell id="M0QYe40SBVqBNcC5Cj2S-33" style="edgeStyle=orthogonalEdgeStyle;rounded=0;orthogonalLoop=1;jettySize=auto;html=1;entryX=0;entryY=0.5;entryDx=0;entryDy=0;" edge="1" parent="1" source="M0QYe40SBVqBNcC5Cj2S-28" target="M0QYe40SBVqBNcC5Cj2S-31">
          <mxGeometry relative="1" as="geometry" />
        </mxCell>
        <mxCell id="M0QYe40SBVqBNcC5Cj2S-56" style="edgeStyle=orthogonalEdgeStyle;rounded=0;orthogonalLoop=1;jettySize=auto;html=1;" edge="1" parent="1" source="M0QYe40SBVqBNcC5Cj2S-28" target="M0QYe40SBVqBNcC5Cj2S-55">
          <mxGeometry relative="1" as="geometry" />
        </mxCell>
        <mxCell id="M0QYe40SBVqBNcC5Cj2S-28" value="공지사항 목록" style="rounded=1;whiteSpace=wrap;html=1;" vertex="1" parent="1">
          <mxGeometry x="570" y="-280" width="120" height="100" as="geometry" />
        </mxCell>
        <mxCell id="M0QYe40SBVqBNcC5Cj2S-29" value="공지글 쓰기" style="rounded=1;whiteSpace=wrap;html=1;" vertex="1" parent="1">
          <mxGeometry x="760" y="-310" width="120" height="40" as="geometry" />
        </mxCell>
        <mxCell id="M0QYe40SBVqBNcC5Cj2S-31" value="공지글 삭제" style="rounded=1;whiteSpace=wrap;html=1;" vertex="1" parent="1">
          <mxGeometry x="760" y="-180" width="120" height="30" as="geometry" />
        </mxCell>
        <mxCell id="M0QYe40SBVqBNcC5Cj2S-82" style="edgeStyle=orthogonalEdgeStyle;rounded=0;orthogonalLoop=1;jettySize=auto;html=1;entryX=0;entryY=0.75;entryDx=0;entryDy=0;" edge="1" parent="1" source="M0QYe40SBVqBNcC5Cj2S-38" target="M0QYe40SBVqBNcC5Cj2S-48">
          <mxGeometry relative="1" as="geometry" />
        </mxCell>
        <mxCell id="M0QYe40SBVqBNcC5Cj2S-83" style="edgeStyle=orthogonalEdgeStyle;rounded=0;orthogonalLoop=1;jettySize=auto;html=1;entryX=0;entryY=0.75;entryDx=0;entryDy=0;" edge="1" parent="1" source="M0QYe40SBVqBNcC5Cj2S-38" target="M0QYe40SBVqBNcC5Cj2S-81">
          <mxGeometry relative="1" as="geometry" />
        </mxCell>
        <mxCell id="M0QYe40SBVqBNcC5Cj2S-38" value="삭제 탭" style="rounded=1;whiteSpace=wrap;html=1;" vertex="1" parent="1">
          <mxGeometry x="380" y="290" width="130" height="60" as="geometry" />
        </mxCell>
        <mxCell id="M0QYe40SBVqBNcC5Cj2S-46" style="edgeStyle=orthogonalEdgeStyle;rounded=0;orthogonalLoop=1;jettySize=auto;html=1;entryX=0;entryY=0.5;entryDx=0;entryDy=0;" edge="1" parent="1" source="M0QYe40SBVqBNcC5Cj2S-41" target="M0QYe40SBVqBNcC5Cj2S-42">
          <mxGeometry relative="1" as="geometry" />
        </mxCell>
        <mxCell id="M0QYe40SBVqBNcC5Cj2S-41" value="" style="rounded=1;whiteSpace=wrap;html=1;" vertex="1" parent="1">
          <mxGeometry x="760" y="20" width="120" height="60" as="geometry" />
        </mxCell>
        <mxCell id="M0QYe40SBVqBNcC5Cj2S-42" value="쪽지 보내기" style="rounded=1;whiteSpace=wrap;html=1;" vertex="1" parent="1">
          <mxGeometry x="970" y="110" width="120" height="30" as="geometry" />
        </mxCell>
        <mxCell id="M0QYe40SBVqBNcC5Cj2S-47" style="edgeStyle=orthogonalEdgeStyle;rounded=0;orthogonalLoop=1;jettySize=auto;html=1;entryX=0;entryY=0.5;entryDx=0;entryDy=0;fillColor=#fff2cc;strokeColor=#d6b656;exitX=1;exitY=0.5;exitDx=0;exitDy=0;" edge="1" parent="1" source="M0QYe40SBVqBNcC5Cj2S-43" target="M0QYe40SBVqBNcC5Cj2S-42">
          <mxGeometry relative="1" as="geometry">
            <Array as="points">
              <mxPoint x="700" y="220" />
              <mxPoint x="700" y="125" />
            </Array>
          </mxGeometry>
        </mxCell>
        <mxCell id="M0QYe40SBVqBNcC5Cj2S-43" value="쪽지 보내기" style="rounded=1;whiteSpace=wrap;html=1;" vertex="1" parent="1">
          <mxGeometry x="380" y="190" width="130" height="60" as="geometry" />
        </mxCell>
        <mxCell id="M0QYe40SBVqBNcC5Cj2S-48" value="판매글 리스트삭제" style="rounded=1;whiteSpace=wrap;html=1;" vertex="1" parent="1">
          <mxGeometry x="580" y="280" width="120" height="60" as="geometry" />
        </mxCell>
        <mxCell id="M0QYe40SBVqBNcC5Cj2S-55" value="공지글 수정" style="rounded=1;whiteSpace=wrap;html=1;" vertex="1" parent="1">
          <mxGeometry x="760" y="-240" width="120" height="30" as="geometry" />
        </mxCell>
        <mxCell id="M0QYe40SBVqBNcC5Cj2S-66" style="edgeStyle=orthogonalEdgeStyle;rounded=0;orthogonalLoop=1;jettySize=auto;html=1;entryX=0;entryY=0.5;entryDx=0;entryDy=0;" edge="1" parent="1" source="M0QYe40SBVqBNcC5Cj2S-59" target="M0QYe40SBVqBNcC5Cj2S-24">
          <mxGeometry relative="1" as="geometry" />
        </mxCell>
        <mxCell id="M0QYe40SBVqBNcC5Cj2S-67" style="edgeStyle=orthogonalEdgeStyle;rounded=0;orthogonalLoop=1;jettySize=auto;html=1;entryX=0;entryY=0.5;entryDx=0;entryDy=0;" edge="1" parent="1" source="M0QYe40SBVqBNcC5Cj2S-59" target="M0QYe40SBVqBNcC5Cj2S-41">
          <mxGeometry relative="1" as="geometry" />
        </mxCell>
        <mxCell id="M0QYe40SBVqBNcC5Cj2S-59" value="판매자/구매자" style="rounded=1;whiteSpace=wrap;html=1;" vertex="1" parent="1">
          <mxGeometry x="570" y="-40" width="120" height="60" as="geometry" />
        </mxCell>
        <mxCell id="M0QYe40SBVqBNcC5Cj2S-70" value="판매자 등급 관리" style="rounded=1;whiteSpace=wrap;html=1;" vertex="1" parent="1">
          <mxGeometry x="760" y="110" width="120" height="60" as="geometry" />
        </mxCell>
        <mxCell id="M0QYe40SBVqBNcC5Cj2S-75" style="edgeStyle=orthogonalEdgeStyle;rounded=0;orthogonalLoop=1;jettySize=auto;html=1;entryX=0.5;entryY=0;entryDx=0;entryDy=0;" edge="1" parent="1" source="M0QYe40SBVqBNcC5Cj2S-72" target="M0QYe40SBVqBNcC5Cj2S-1">
          <mxGeometry relative="1" as="geometry" />
        </mxCell>
        <mxCell id="M0QYe40SBVqBNcC5Cj2S-72" value="&lt;font style=&quot;font-size: 14px&quot;&gt;로그인&lt;/font&gt;" style="rounded=1;whiteSpace=wrap;html=1;" vertex="1" parent="1">
          <mxGeometry x="-170" y="90" width="120" height="60" as="geometry" />
        </mxCell>
        <mxCell id="M0QYe40SBVqBNcC5Cj2S-76" style="edgeStyle=orthogonalEdgeStyle;rounded=0;orthogonalLoop=1;jettySize=auto;html=1;" edge="1" parent="1" source="M0QYe40SBVqBNcC5Cj2S-73">
          <mxGeometry relative="1" as="geometry">
            <mxPoint x="-110" y="70" as="targetPoint" />
          </mxGeometry>
        </mxCell>
        <mxCell id="M0QYe40SBVqBNcC5Cj2S-73" value="&lt;font style=&quot;font-size: 14px&quot;&gt;소셜 로그인&lt;/font&gt;" style="rounded=1;whiteSpace=wrap;html=1;" vertex="1" parent="1">
          <mxGeometry x="-170" y="-100" width="120" height="60" as="geometry" />
        </mxCell>
        <mxCell id="M0QYe40SBVqBNcC5Cj2S-81" value="후기글 리스트 삭제" style="rounded=1;whiteSpace=wrap;html=1;" vertex="1" parent="1">
          <mxGeometry x="580" y="390" width="120" height="60" as="geometry" />
        </mxCell>
      </root>
    </mxGraphModel>
  </diagram>
</mxfile>
